<svg width="157" height="53" viewBox="0 0 157 53" fill="none" xmlns="http://www.w3.org/2000/svg">
<g id="Frame">
<path id="Vector" d="M63.2543 45.5634C59.6066 45.5634 56.0524 43.4823 56.0524 40.1619V39.8112H59.6533V40.1619C59.6533 41.2142 61.6409 41.9624 63.2543 41.9624C64.4001 41.9624 65.6862 41.6818 66.5279 40.84L56.0524 32.9132V32.0013C56.0524 28.7276 59.4897 26.5998 63.2543 26.5998C66.9488 26.5998 70.4563 28.7043 70.4563 32.0013V32.352H66.8553V32.0013C66.8553 30.949 64.8678 30.2008 63.2543 30.2008C62.1319 30.2008 60.7991 30.5047 59.9807 31.3232L70.4563 39.25V40.1619C70.4563 43.4122 67.019 45.5634 63.2543 45.5634ZM84.8669 27.0675H89.1927L77.174 45.0957H72.8481L78.1327 37.1689L71.3984 27.0675H75.7476L80.3073 33.9187L84.8669 27.0675ZM96.388 45.5634C92.6233 45.5634 89.186 43.6694 89.186 40.1619V39.8112H92.787V40.1619C92.787 41.2142 94.7746 41.9624 96.388 41.9624C97.8611 41.9624 99.989 41.4012 99.989 40.1619V37.6599H89.186V32.0013C89.186 28.7276 92.6233 26.5998 96.388 26.5998C100.083 26.5998 103.59 28.7043 103.59 32.0013V32.352H99.989V32.0013C99.989 30.8087 98.0014 30.2008 96.388 30.2008C94.9149 30.2008 92.787 30.8087 92.787 32.1182V34.2694H103.59V40.1619C103.59 43.6226 100.153 45.5634 96.388 45.5634ZM105.233 27.0675H120.011V34.2694H116.411V30.6684H114.423V41.4947H116.223V45.0957H109.022V41.4947H110.822V30.6684H108.834V34.2694H105.233V27.0675ZM135.453 30.6684H125.726V31.9311H134.729V35.5321H125.726V36.6311H134.729V40.2321H125.726V41.4947H135.453V45.0957H122.125V27.0675H135.453V30.6684ZM141.186 45.0957H137.561V27.0675H141.139L144.787 30.2943V27.0675H148.388V30.2943L152.035 27.0675H155.59V45.0957H151.989V31.9077L148.388 35.0878V45.0957H144.787V35.0878L141.186 31.9077V45.0957Z" fill="white"/>
<path id="Vector_2" d="M45.677 23.0155C41.1407 23.0155 37.9138 19.8121 37.9138 15.2758V4.5196H43.8765V7.91013H41.5382V15.2758C41.5382 17.7076 43.2451 19.4146 45.677 19.4146C48.1088 19.4146 49.8158 17.7076 49.8158 15.2758V7.91013H47.4775V4.5196H53.4167V15.2758C53.4167 19.8121 50.2133 23.0155 45.677 23.0155ZM59.5827 17.1464V22.5479H55.9818V13.5454H60.1205L55.9818 8.00366V4.5196H64.6335C68.1175 4.5196 70.9469 7.34894 70.9469 10.833C70.9469 14.3171 68.1175 17.1464 64.6335 17.1464H59.5827ZM64.6335 8.12058H60.5882L64.6335 13.5454C66.13 13.5454 67.3459 12.3295 67.3459 10.833C67.3459 9.33649 66.13 8.12058 64.6335 8.12058ZM84.8418 11.7216V4.5196H88.4428V22.5479H84.8418V20.7474H76.8916V22.5479H73.2906V4.5196H76.8916V11.7216H84.8418ZM76.8916 15.3459V17.1464H84.8418V15.3459H76.8916ZM100.148 23.0155C94.9566 23.0155 90.771 18.7832 90.771 13.5454C90.771 8.33103 94.8631 4.05194 100.148 4.05194C105.362 4.05194 109.524 8.26088 109.524 13.5454C109.524 18.7365 105.409 23.0155 100.148 23.0155ZM100.148 7.65292C96.9675 7.65292 94.372 10.2718 94.372 13.5454C94.372 16.819 96.9909 19.4146 100.148 19.4146C103.258 19.4146 105.923 16.936 105.923 13.5454C105.923 10.225 103.351 7.65292 100.148 7.65292ZM122.826 16.7021L127.245 22.5479H122.732L115.46 12.9609V22.5479H111.859V4.5196H120.511C123.995 4.5196 126.824 7.34894 126.824 10.833C126.824 13.4051 125.211 15.8136 122.826 16.7021ZM120.417 13.5454H120.511C121.984 13.5454 123.2 12.3061 123.2 10.833C123.2 9.35988 121.984 8.12058 120.511 8.12058H116.325L120.417 13.5454ZM136.319 8.12058H134.518V18.9469H136.319V22.5479H129.117V18.9469H130.917V8.12058H129.117V4.5196H136.319V8.12058ZM152.458 22.5479L146.939 9.64047L141.421 22.5479H137.493L145.209 4.5196H148.67L156.363 22.5479H152.458Z" fill="white"/>
<path id="Vector_3" d="M34.1976 45.0958H3.15674V20.7365H8.47052L3.15674 12.6343V4.53214H33.1454V12.6343H12.8373L18.2037 20.7365H31.5671V28.8914H23.5175L34.1976 45.0958ZM11.2589 36.9936H19.1507L13.8369 28.8914H11.2589V36.9936Z" fill="white"/>
</g>
</svg>
