<svg width="36" height="35" viewBox="0 0 36 35" fill="none" xmlns="http://www.w3.org/2000/svg">
<path id="Vector" d="M0.045166 34.3625C0.679927 30.8158 1.35018 26.9892 2.05522 22.8825C2.76026 18.7758 3.39503 14.7625 3.95952 10.8425C4.524 6.9225 4.98194 3.3292 5.33484 0.0625H15.3852L16.1258 1.6025C15.491 4.8692 14.6802 8.3692 13.6925 12.1025C12.7049 15.9292 11.6122 19.7558 10.4129 23.5825C9.21368 27.4092 8.04993 31.0025 6.92172 34.3625H0.045166ZM19.6169 34.3625C20.2517 30.8158 20.922 26.9892 21.627 22.8825C22.3321 18.7758 22.9668 14.7625 23.5313 10.8425C24.0958 6.9225 24.5537 3.3292 24.9066 0.0625H34.8512L35.486 1.6025C34.8512 4.8692 34.0404 8.3692 33.0527 12.1025C32.0651 15.9292 31.0071 19.7558 29.8789 23.5825C28.6797 27.4092 27.5159 31.0025 26.3877 34.3625H19.6169Z" fill="#11345C" fill-opacity="0.1"/>
</svg>
