<svg width="64" height="64" viewBox="0 0 64 64" fill="none" xmlns="http://www.w3.org/2000/svg">
<path d="M48 41.3332C47.649 41.3352 47.3011 41.2679 46.9762 41.1352C46.6513 41.0025 46.3558 40.807 46.1066 40.5598L33.8933 28.3198C33.6454 28.0699 33.3505 27.8715 33.0255 27.7361C32.7005 27.6007 32.352 27.531 32 27.531C31.6479 27.531 31.2994 27.6007 30.9744 27.7361C30.6495 27.8715 30.3545 28.0699 30.1066 28.3198L17.8933 40.5598C17.3912 41.062 16.7101 41.3441 16 41.3441C15.2898 41.3441 14.6088 41.062 14.1066 40.5598C13.6045 40.0577 13.3224 39.3766 13.3224 38.6665C13.3224 38.3149 13.3916 37.9667 13.5262 37.6418C13.6608 37.317 13.858 37.0218 14.1066 36.7732L26.3466 24.5598C27.8665 23.0997 29.8923 22.2842 32 22.2842C34.1076 22.2842 36.1335 23.0997 37.6533 24.5598L49.8933 36.7732C50.1432 37.0211 50.3416 37.316 50.477 37.641C50.6124 37.9659 50.6821 38.3145 50.6821 38.6665C50.6821 39.0185 50.6124 39.3671 50.477 39.692C50.3416 40.017 50.1432 40.3119 49.8933 40.5598C49.6441 40.807 49.3486 41.0025 49.0237 41.1352C48.6988 41.2679 48.3509 41.3352 48 41.3332Z" fill="white" fill-opacity="0.7"/>
</svg>
