<svg width="33" height="33" viewBox="0 0 33 33" fill="none" xmlns="http://www.w3.org/2000/svg">
<g clip-path="url(#clip0_320_573)">
<path fill-rule="evenodd" clip-rule="evenodd" d="M16.3359 0.199219C7.49994 0.199219 0.335938 7.36322 0.335938 16.1992C0.335938 25.0352 7.49994 32.1992 16.3359 32.1992C25.1719 32.1992 32.3359 25.0352 32.3359 16.1992C32.3359 7.36322 25.1719 0.199219 16.3359 0.199219ZM23.7519 11.0806C23.5119 13.6099 22.4693 19.7499 21.9399 22.5832C21.7159 23.7832 21.2733 24.1846 20.8466 24.2232C19.9173 24.3086 19.2119 23.6086 18.3119 23.0192C16.9039 22.0966 16.1079 21.5219 14.7413 20.6206C13.1613 19.5792 14.1853 19.0072 15.0853 18.0726C15.3213 17.8272 19.4146 14.1032 19.4946 13.7659C19.5039 13.7232 19.5146 13.5659 19.4199 13.4832C19.3253 13.4006 19.1879 13.4286 19.0893 13.4512C18.9479 13.4832 16.6986 14.9699 12.3399 17.9112C11.7013 18.3499 11.1226 18.5632 10.6039 18.5526C10.0333 18.5406 8.9346 18.2299 8.11727 17.9632C7.11594 17.6379 6.3186 17.4646 6.38794 16.9126C6.42394 16.6246 6.81994 16.3299 7.57727 16.0286C12.2413 13.9966 15.3519 12.6566 16.9079 12.0086C21.3519 10.1606 22.2746 9.83922 22.8773 9.82855C23.6319 9.81789 23.8133 10.4406 23.7519 11.0806Z" fill="#E7E7E7"/>
</g>
<defs>
<clipPath id="clip0_320_573">
<rect width="32" height="32" fill="white" transform="translate(0.335938 0.199219)"/>
</clipPath>
</defs>
</svg>
