<svg width="33" height="32" viewBox="0 0 33 32" fill="none" xmlns="http://www.w3.org/2000/svg">
<g clip-path="url(#clip0_320_580)">
<path d="M16.3359 2.88267C20.6079 2.88267 21.1146 2.89867 22.8013 2.976C24.5453 3.056 26.3413 3.45333 27.6119 4.724C28.8946 6.00667 29.2799 7.78533 29.3599 9.53467C29.4373 11.2213 29.4533 11.728 29.4533 16C29.4533 20.272 29.4373 20.7787 29.3599 22.4653C29.2813 24.2 28.8746 26.0133 27.6119 27.276C26.3293 28.5587 24.5519 28.944 22.8013 29.024C21.1146 29.1013 20.6079 29.1173 16.3359 29.1173C12.0639 29.1173 11.5573 29.1013 9.8706 29.024C8.14927 28.9453 6.31194 28.5293 5.05994 27.276C3.78394 26 3.39194 24.204 3.31194 22.4653C3.2346 20.7787 3.2186 20.272 3.2186 16C3.2186 11.728 3.2346 11.2213 3.31194 9.53467C3.3906 7.80667 3.80127 5.98267 5.05994 4.724C6.33994 3.444 8.12527 3.056 9.8706 2.976C11.5573 2.89867 12.0639 2.88267 16.3359 2.88267ZM16.3359 0C11.9906 0 11.4453 0.0186667 9.7386 0.096C7.26527 0.209333 4.80927 0.897333 3.02127 2.68533C1.2266 4.48 0.545271 6.93067 0.431938 9.40267C0.354604 11.1093 0.335938 11.6547 0.335938 16C0.335938 20.3453 0.354604 20.8907 0.431938 22.5973C0.545271 25.068 1.23594 27.5307 3.02127 29.3147C4.8146 31.108 7.26927 31.7907 9.7386 31.904C11.4453 31.9813 11.9906 32 16.3359 32C20.6813 32 21.2266 31.9813 22.9333 31.904C25.4053 31.7907 27.8639 31.1013 29.6506 29.3147C31.4466 27.5187 32.1266 25.0693 32.2399 22.5973C32.3173 20.8907 32.3359 20.3453 32.3359 16C32.3359 11.6547 32.3173 11.1093 32.2399 9.40267C32.1266 6.92933 31.4373 4.472 29.6506 2.68533C27.8599 0.894667 25.3986 0.208 22.9333 0.096C21.2266 0.0186667 20.6813 0 16.3359 0Z" fill="#E7E7E7"/>
<path d="M16.336 7.78418C11.7987 7.78418 8.12 11.4628 8.12 16.0002C8.12 20.5375 11.7987 24.2162 16.336 24.2162C20.8733 24.2162 24.552 20.5375 24.552 16.0002C24.552 11.4628 20.8733 7.78418 16.336 7.78418ZM16.336 21.3335C13.3907 21.3335 11.0027 18.9455 11.0027 16.0002C11.0027 13.0548 13.3907 10.6668 16.336 10.6668C19.2813 10.6668 21.6693 13.0548 21.6693 16.0002C21.6693 18.9455 19.2813 21.3335 16.336 21.3335Z" fill="#E7E7E7"/>
<path d="M24.8773 9.37906C25.9377 9.37906 26.7973 8.51945 26.7973 7.45906C26.7973 6.39868 25.9377 5.53906 24.8773 5.53906C23.8169 5.53906 22.9573 6.39868 22.9573 7.45906C22.9573 8.51945 23.8169 9.37906 24.8773 9.37906Z" fill="#E7E7E7"/>
</g>
<defs>
<clipPath id="clip0_320_580">
<rect width="32" height="32" fill="white" transform="translate(0.335938)"/>
</clipPath>
</defs>
</svg>
