<svg width="32" height="32" viewBox="0 0 32 32" fill="none" xmlns="http://www.w3.org/2000/svg">
<g clip-path="url(#clip0_320_590)">
<path d="M31.9709 2.69723V8.03056C31.9709 8.38418 31.8305 8.72332 31.5804 8.97337C31.3304 9.22342 30.9913 9.36389 30.6377 9.36389C30.2841 9.36389 29.9449 9.22342 29.6949 8.97337C29.4449 8.72332 29.3044 8.38418 29.3044 8.03056V4.61323L22.2381 11.6426C21.986 11.8848 21.6488 12.0183 21.2991 12.0144C20.9495 12.0104 20.6154 11.8692 20.3689 11.6212C20.1224 11.3733 19.9831 11.0384 19.9811 10.6888C19.9791 10.3391 20.1145 10.0027 20.3582 9.75189L27.4512 2.69723H23.9713C23.6177 2.69723 23.2786 2.55675 23.0286 2.3067C22.7785 2.05666 22.6381 1.71752 22.6381 1.36389C22.6381 1.01027 22.7785 0.671134 23.0286 0.421086C23.2786 0.171037 23.6177 0.0305614 23.9713 0.0305614H29.3044C30.0116 0.0305614 30.6898 0.311513 31.1899 0.81161C31.69 1.31171 31.9709 1.98998 31.9709 2.69723ZM30.7643 22.3492C31.537 23.124 31.9709 24.1736 31.9709 25.2679C31.9709 26.3621 31.537 27.4117 30.7643 28.1866L29.5484 29.5866C18.6276 40.0372 -7.94309 13.4732 2.34973 2.51989L3.88166 1.18656C4.65774 0.435589 5.69802 0.019976 6.77789 0.0294555C7.85777 0.0389351 8.89059 0.472747 9.65337 1.23723C9.69337 1.27856 12.1639 4.48923 12.1639 4.48923C12.8968 5.25916 13.3048 6.28185 13.3034 7.34483C13.3019 8.40781 12.8909 9.42935 12.1559 10.1972L10.6107 12.1399C11.4651 14.216 12.7213 16.1029 14.3072 17.692C15.893 19.2812 17.7772 20.5412 19.8515 21.3999L21.8048 19.8466C22.5725 19.1119 23.5938 18.7012 24.6564 18.6997C25.719 18.6982 26.7413 19.1061 27.5112 19.8386C27.5112 19.8386 30.723 22.3092 30.7643 22.3492ZM28.9311 24.2879C28.9311 24.2879 25.7406 21.8319 25.6992 21.7919C25.4246 21.5195 25.0534 21.3667 24.6666 21.3667C24.2798 21.3667 23.9087 21.5195 23.634 21.7919C23.598 21.8266 20.9088 23.9706 20.9088 23.9706C20.7276 24.1148 20.5119 24.2094 20.283 24.2449C20.0542 24.2804 19.82 24.2557 19.6035 24.1732C16.9146 23.1733 14.4723 21.6065 12.4424 19.5792C10.4124 17.5519 8.84238 15.1116 7.8388 12.4239C7.751 12.2054 7.72264 11.9675 7.75659 11.7345C7.79055 11.5015 7.88562 11.2816 8.03212 11.0972C8.03212 11.0972 10.1747 8.40789 10.2107 8.37189C10.483 8.09721 10.6358 7.72605 10.6358 7.33923C10.6358 6.95241 10.483 6.58125 10.2107 6.30656C10.1707 6.26656 7.7148 3.07456 7.7148 3.07456C7.43618 2.8244 7.07243 2.69028 6.69811 2.6997C6.32379 2.70912 5.96725 2.86136 5.70157 3.12523L4.16964 4.45856C-3.35532 13.5012 19.6742 35.2559 27.5978 27.7679L28.8138 26.3679C29.1004 26.1048 29.2731 25.7402 29.295 25.3517C29.3169 24.9633 29.1863 24.5816 28.9311 24.2879Z" fill="#E7E7E7"/>
</g>
<defs>
<clipPath id="clip0_320_590">
<rect width="31.9984" height="32" fill="white" transform="translate(-0.000854492)"/>
</clipPath>
</defs>
</svg>
